<svg width="14" height="12" viewBox="0 0 14 12" fill="none" xmlns="http://www.w3.org/2000/svg">
<path d="M9.72727 10.8182V9.72727C9.72727 9.14862 9.4974 8.59367 9.08823 8.1845C8.67906 7.77533 8.12411 7.54546 7.54545 7.54546H3.18182C2.60316 7.54546 2.04821 7.77533 1.63904 8.1845C1.22987 8.59367 1 9.14862 1 9.72727V10.8182" stroke="#7B7B7B" stroke-linecap="round" stroke-linejoin="round"/>
<path d="M5.36346 5.36364C6.56844 5.36364 7.54528 4.3868 7.54528 3.18182C7.54528 1.97683 6.56844 1 5.36346 1C4.15847 1 3.18164 1.97683 3.18164 3.18182C3.18164 4.3868 4.15847 5.36364 5.36346 5.36364Z" stroke="#7B7B7B" stroke-linecap="round" stroke-linejoin="round"/>
<path d="M13.0001 10.8182V9.72727C12.9998 9.24385 12.8389 8.77424 12.5427 8.39217C12.2465 8.0101 11.8318 7.73722 11.3638 7.61636" stroke="#7B7B7B" stroke-linecap="round" stroke-linejoin="round"/>
<path d="M9.18164 1.07091C9.65096 1.19107 10.0669 1.46402 10.364 1.84671C10.661 2.22941 10.8223 2.70009 10.8223 3.18454C10.8223 3.669 10.661 4.13968 10.364 4.52237C10.0669 4.90507 9.65096 5.17802 9.18164 5.29818" stroke="#7B7B7B" stroke-linecap="round" stroke-linejoin="round"/>
</svg>
